<svg width="50" height="24" viewBox="0 0 50 24" fill="none" xmlns="http://www.w3.org/2000/svg">
<path d="M1.12752 0.500126L1.12751 0.500208H1.13659H48.8634C49.0514 0.500208 49.2207 0.566486 49.3366 0.668455C49.4504 0.768613 49.4998 0.889715 49.4998 1.00019V3.00016H49.4996L49.4999 3.01187C49.5012 3.06673 49.49 3.12304 49.4648 3.17819C49.4395 3.23364 49.3995 3.28868 49.3435 3.33796C49.2874 3.38735 49.217 3.42924 49.1351 3.45822C49.0532 3.48721 48.9637 3.50188 48.8725 3.50022V3.50014H48.8634H1.13659C0.948644 3.50014 0.779254 3.43386 0.663379 3.33189C0.549561 3.23173 0.500237 3.11063 0.500237 3.00016V1.00019H0.500374L0.5001 0.988475C0.498814 0.933614 0.509981 0.877304 0.535187 0.822153C0.560524 0.766713 0.600487 0.711667 0.656486 0.662388C0.712617 0.612994 0.783022 0.57111 0.864911 0.542128C0.946814 0.513141 1.03633 0.498471 1.12752 0.500126ZM1.12752 10.5L1.12751 10.5H1.13659H48.8634C49.0514 10.5 49.2207 10.5663 49.3366 10.6683C49.4504 10.7684 49.4998 10.8895 49.4998 11V13H49.4996L49.4999 13.0117C49.5012 13.0666 49.49 13.1229 49.4648 13.178C49.4395 13.2335 49.3995 13.2885 49.3435 13.3378C49.2874 13.3872 49.217 13.4291 49.1351 13.458C49.0532 13.487 48.9637 13.5017 48.8725 13.5V13.5H48.8634H1.13659C0.948645 13.5 0.779254 13.4337 0.663379 13.3317C0.549561 13.2316 0.500237 13.1105 0.500237 13V11H0.500374L0.5001 10.9883C0.498814 10.9334 0.509981 10.8771 0.535187 10.822C0.560524 10.7665 0.600487 10.7115 0.656486 10.6622C0.712617 10.6128 0.783023 10.5709 0.864911 10.542C0.946815 10.513 1.03633 10.4983 1.12752 10.5ZM1.12752 20.4998L1.12751 20.4999H1.13659H48.8634C49.0514 20.4999 49.2207 20.5661 49.3366 20.6681C49.4504 20.7683 49.4998 20.8894 49.4998 20.9998V22.9998H49.4996L49.4999 23.0115C49.5012 23.0664 49.49 23.1227 49.4648 23.1778C49.4395 23.2333 49.3995 23.2883 49.3435 23.3376C49.2874 23.387 49.217 23.4289 49.1351 23.4579C49.0532 23.4869 48.9637 23.5015 48.8725 23.4999V23.4998H48.8634H1.13659C0.948644 23.4998 0.779254 23.4335 0.663379 23.3315C0.549561 23.2314 0.500237 23.1103 0.500237 22.9998V20.9998H0.500374L0.5001 20.9881C0.498814 20.9333 0.509981 20.877 0.535187 20.8218C0.560524 20.7664 0.600486 20.7113 0.656486 20.662C0.712618 20.6126 0.783024 20.5708 0.864911 20.5418C0.946813 20.5128 1.03633 20.4981 1.12752 20.4998Z" fill="white" stroke="#283645"/>
</svg>
